<svg id="Layer_1" data-name="Layer 1" xmlns="http://www.w3.org/2000/svg" xmlns:xlink="http://www.w3.org/1999/xlink" viewBox="0 0 1920 1080"><defs><style>.cls-1,.cls-10,.cls-11,.cls-13,.cls-14,.cls-15,.cls-2,.cls-3,.cls-4,.cls-5,.cls-6,.cls-7,.cls-8,.cls-9{opacity:0.1;}.cls-1{fill:url(#linear-gradient);}.cls-2{fill:url(#linear-gradient-2);}.cls-3{fill:url(#linear-gradient-3);}.cls-4{fill:url(#linear-gradient-4);}.cls-5{fill:url(#linear-gradient-5);}.cls-6{fill:url(#linear-gradient-6);}.cls-7{fill:url(#linear-gradient-7);}.cls-8{fill:url(#linear-gradient-8);}.cls-9{fill:url(#linear-gradient-9);}.cls-10{fill:url(#linear-gradient-10);}.cls-12,.cls-13{fill:none;stroke:#000;stroke-linecap:round;stroke-linejoin:round;stroke-width:5px;}.cls-14{fill:url(#linear-gradient-11);}.cls-15{fill:url(#linear-gradient-12);}</style><linearGradient id="linear-gradient" x1="-233.13" y1="114.53" x2="57.93" y2="114.53" gradientTransform="translate(1613.24 736.46) rotate(144.57)" gradientUnits="userSpaceOnUse"><stop offset="0" stop-color="#66a3ff"/><stop offset="0.28" stop-color="#569aff"/><stop offset="0.69" stop-color="#4590ff"/><stop offset="1" stop-color="#3f8cff"/></linearGradient><linearGradient id="linear-gradient-2" x1="474.81" y1="-401.46" x2="765.87" y2="-401.46" gradientTransform="matrix(0.1, 0.99, -0.99, 0.1, 1248.44, -412.86)" gradientUnits="userSpaceOnUse"><stop offset="0" stop-color="#66a3ff"/><stop offset="0.26" stop-color="#589bff"/><stop offset="0.68" stop-color="#4791ff"/><stop offset="1" stop-color="#418dff"/></linearGradient><linearGradient id="linear-gradient-3" x1="-128.62" y1="216.34" x2="-83.62" y2="216.34" gradientTransform="translate(1468.19 715) rotate(180)" gradientUnits="userSpaceOnUse"><stop offset="0" stop-color="#3a89ff"/><stop offset="0.34" stop-color="#4f95ff"/><stop offset="0.72" stop-color="#609fff"/><stop offset="1" stop-color="#66a3ff"/></linearGradient><linearGradient id="linear-gradient-4" x1="-333.44" y1="507.27" x2="-288.44" y2="507.27" gradientTransform="translate(1261.63 650.14) rotate(180)" gradientUnits="userSpaceOnUse"><stop offset="0" stop-color="#66a3ff"/><stop offset="1" stop-color="#3b8aff"/></linearGradient><linearGradient id="linear-gradient-5" x1="-71.98" y1="234.96" x2="-46.98" y2="234.96" gradientTransform="translate(1613.24 736.46) rotate(144.57)" gradientUnits="userSpaceOnUse"><stop offset="0" stop-color="#66a3ff"/><stop offset="0.28" stop-color="#569aff"/><stop offset="0.69" stop-color="#4590ff"/><stop offset="1" stop-color="#3f8cff"/></linearGradient><linearGradient id="linear-gradient-6" x1="668.55" y1="-899.98" x2="937.54" y2="-899.98" gradientTransform="matrix(0.39, 1.52, -0.97, 0.25, 515.41, -373.53)" gradientUnits="userSpaceOnUse"><stop offset="0" stop-color="#408cff"/><stop offset="0.13" stop-color="#4c93ff"/><stop offset="0.38" stop-color="#5e9eff"/><stop offset="0.55" stop-color="#65a2ff"/></linearGradient><linearGradient id="linear-gradient-7" x1="836.13" y1="824.55" x2="1127.19" y2="824.55" gradientTransform="translate(-773.5 638.01) rotate(-45.51)" gradientUnits="userSpaceOnUse"><stop offset="0.01" stop-color="#3d8aff"/><stop offset="0.16" stop-color="#4e95ff"/><stop offset="0.38" stop-color="#5f9fff"/><stop offset="0.54" stop-color="#65a3ff"/></linearGradient><linearGradient id="linear-gradient-8" x1="1166" y1="1277.06" x2="1457.06" y2="1277.06" gradientTransform="matrix(-0.53, -0.85, 0.85, -0.53, -101.85, 1966.99)" gradientUnits="userSpaceOnUse"><stop offset="0" stop-color="#3b89ff"/><stop offset="0.33" stop-color="#4f95ff"/><stop offset="0.71" stop-color="#609fff"/><stop offset="1" stop-color="#66a3ff"/></linearGradient><linearGradient id="linear-gradient-9" x1="1820.24" y1="1395.72" x2="1845.24" y2="1395.72" gradientTransform="translate(-773.5 638.01) rotate(-45.51)" gradientUnits="userSpaceOnUse"><stop offset="0" stop-color="#66a3ff"/><stop offset="0.22" stop-color="#5b9cff"/><stop offset="0.67" stop-color="#4a92ff"/><stop offset="1" stop-color="#448eff"/></linearGradient><linearGradient id="linear-gradient-10" x1="656.35" y1="288.62" x2="925.33" y2="288.62" gradientTransform="matrix(1.48, -0.85, 0.63, 1.1, -775.38, 1017.75)" gradientUnits="userSpaceOnUse"><stop offset="0" stop-color="#3284ff"/><stop offset="0.01" stop-color="#3385ff"/><stop offset="0.4" stop-color="#4f95ff"/><stop offset="0.75" stop-color="#609fff"/><stop offset="1" stop-color="#66a3ff"/></linearGradient><linearGradient id="linear-gradient-11" x1="524.93" y1="817.46" x2="569.93" y2="817.46" gradientTransform="translate(1240.74 1205.12) rotate(180)" xlink:href="#linear-gradient-3"/><linearGradient id="linear-gradient-12" x1="1167.08" y1="582.31" x2="1192.08" y2="582.31" xlink:href="#linear-gradient-9"/></defs><title>Artboard 1</title><path class="cls-1" d="M1469,627c-4.18-13.71-3.06-28.28.23-42.06s9.45-27.62,20.66-36.56c25.81-20.6,59.38-10.41,89.21-11.33,16.35-.5,22.32-15.35,28-28.37,5.7-13.2,10.8-26.72,17.88-39.27,6.75-12,16.6-25.14,29.87-30.28,13.61-5.27,27.85,1.89,37.91,11A128.38,128.38,0,0,1,1706,464.68c25.39,40.35,32.83,90.73,21.9,137.09-6.13,26-18.34,51.24-36.42,71.06-20.75,22.74-50.65,34.26-81.08,35.26-28.58.94-56.85-7.44-82.15-20.29S1477.54,655.2,1469,627Z"/><path class="cls-2" d="M1668.56,309.67c-14-3.11-26.12-11.26-36.49-20.91s-19.39-21.82-21.65-36c-5.22-32.6,20.17-56.81,34.06-83.22,7.62-14.48-2.38-27-10.94-38.3s-17.93-22.56-25.37-34.9c-7.11-11.78-13.71-26.82-11.65-40.91,2.11-14.44,15.36-23.3,28.21-27.59A128.78,128.78,0,0,1,1644,23.41c47.62-2.23,95.13,16.09,130.1,48.43C1793.67,90,1809.63,113,1818,138.53c9.59,29.26,4.89,60.95-9.22,87.94-13.25,25.34-34.47,45.81-58.11,61.51S1697.3,316.06,1668.56,309.67Z"/><ellipse class="cls-3" cx="1574.31" cy="498.65" rx="22.5" ry="23" transform="translate(2.41 1004.87) rotate(-35.43)"/><ellipse class="cls-4" cx="1572.57" cy="142.87" rx="22.5" ry="23" transform="translate(208.32 937.99) rotate(-35.43)"/><circle class="cls-5" cx="1525.52" cy="510.52" r="12.5"/><path class="cls-6" d="M1795.86,810.55c-16.46-3.86-33.88-17.09-44.43-39.62a105.5,105.5,0,0,1-5.76-16.11c-1.58-5.54-3.24-11.24-6.1-16-6.34-10.51-15.43-9.4-22.71-8.65-35.65,3.66-68.39,32.76-107.31,15.5-15.49-6.88-31.12-22.87-39.75-44.78-9.06-23-5.94-46,.33-64.59,3.29-9.75,7.32-18.73,11.32-27.73,4.39-9.92,8.86-19.76,13.73-29.13a192.15,192.15,0,0,1,15.73-25.8c5.58-7.52,11.84-13.46,18.39-19.19,5.15-4.5,10.67-9.79,12.85-18.51,2.69-10.79-1.13-22.07-4.75-33.41-1.78-5.57-3.46-11.44-3.25-17.12a25.08,25.08,0,0,1,3.51-12.07c4.54-7.54,11.36-10.6,18.43-12.2,7.76-1.76,15.76-2.49,22.86-6.4a1.66,1.66,0,0,0,1.9-.24A241.49,241.49,0,0,1,1730,402.73a224.39,224.39,0,0,1,26.35-10.65c7-2.33,14.31-5,22.08-3.71,7.44,1.22,14.69,7.31,17.7,18.87,3.26,12.51,1.47,25.23-.53,36.16-4.34,23.7-11.8,45-18,67.15a286.38,286.38,0,0,0-7.81,33.9,69,69,0,0,0,4.09,36.77c8.45,21.25,22.1,39.56,34.68,55.8s25.75,31.63,37.54,49.27c11.43,17.09,22.76,38.32,26.43,60.67,2.21,13.38,0,24-5.58,32.3a76.9,76.9,0,0,1-20.19,20.37C1832,810,1814.1,814.83,1795.86,810.55Z"/><path class="cls-7" d="M643.52,455.15c6.52,12.77,8,27.31,7.14,41.45s-4.47,28.85-13.94,39.62C614.92,561,580.09,556.87,550.88,563c-16,3.36-19.29,19-22.55,32.84-3.3,14-6,28.19-10.72,41.78-4.56,13-11.95,27.66-24.11,35-12.47,7.58-27.75,3-39.25-4.16a129.88,129.88,0,0,1-15.67-12C406.52,621.24,390.37,573,393,525.39c1.48-26.67,9.08-53.67,23.41-76.34,16.44-26,43.86-42.61,73.65-48.92,28-5.94,57.28-2.63,84.44,5.58S630.13,428.93,643.52,455.15Z"/><path class="cls-8" d="M252.4,25.44C266.32,22,280.8,24,294.38,28s27.05,11,35.36,22.66c19.12,26.91,7.09,59.86,6.34,89.69-.41,16.36,14.09,23.14,26.78,29.49,12.86,6.43,26.07,12.28,38.21,20,11.59,7.41,24.17,18,28.57,31.51,4.51,13.88-3.44,27.69-13.06,37.24a128.92,128.92,0,0,1-15.26,12.5c-41.7,23.11-92.41,27.74-138.09,14.24-25.62-7.56-50.15-21.16-68.93-40.31-21.55-22-31.39-52.48-30.7-82.92.65-28.59,10.6-56.35,24.83-80.9S223.8,32.45,252.4,25.44Z"/><circle class="cls-9" cx="1506.5" cy="308.5" r="12.5"/><path class="cls-10" d="M743,498.89c2,20.67-5.57,44.89-25.73,63.22a99.9,99.9,0,0,1-15.09,11c-5.35,3.29-10.83,6.72-14.83,11.35-8.86,10.25-4.26,20.85-.71,29.39,17.33,41.75,60.82,73.59,57,124.56-1.53,20.29-12.78,43.06-33,58.94-21.22,16.67-47,18.75-69.32,16-11.68-1.47-22.82-4-34-6.53-12.28-2.75-24.5-5.61-36.37-9.07a229.36,229.36,0,0,1-33.56-12.31c-10.15-4.78-18.87-10.76-27.48-17.15-6.76-5-14.49-10.3-24.66-10.71-12.57-.49-23.21,6.94-34,14.14-5.31,3.55-11,7.05-17.12,8.24a27,27,0,0,1-14.25-1.15c-9.79-3.54-15.63-10.93-20-19-4.8-8.85-8.59-18.25-15.46-25.76a2.32,2.32,0,0,0-1-2.21A340.49,340.49,0,0,1,330.84,681a325.58,325.58,0,0,1-21.32-28.85c-5.14-7.83-10.74-15.87-12.29-25.5-1.49-9.22,2.31-19.44,13.56-26,12.18-7.07,26.48-8.15,38.94-8.52,27-.81,52.6,2.75,78.7,4.56,12.81.89,25.91,1.61,39.26.77,13.62-.85,26.28-5.05,37.86-14.21,19.58-15.49,34.06-36.47,46.72-55.64s24.19-38.85,38.65-57.43c14-18,32.49-37,55.05-47,13.51-6,25.69-6,36.7-1.49a101.58,101.58,0,0,1,29.42,19C728.77,455.77,740.68,476,743,498.89Z"/><g class="cls-11"><line class="cls-12" x1="1393.41" y1="294.42" x2="1331.69" y2="252.86"/><line class="cls-12" x1="1333.59" y1="295.81" x2="1391.49" y2="251.49"/></g><g class="cls-11"><line class="cls-12" x1="886.22" y1="700.5" x2="824.5" y2="658.94"/><line class="cls-12" x1="826.41" y1="701.89" x2="884.31" y2="657.57"/></g><g class="cls-11"><line class="cls-12" x1="1268.17" y1="872.93" x2="1206.44" y2="831.37"/><line class="cls-12" x1="1208.35" y1="874.32" x2="1266.25" y2="830"/></g><path class="cls-13" d="M617.23,400.91c-35.57,0-64.4-20.61-64.4-46s28.83-46,64.4-46"/><path class="cls-13" d="M591.64,105.2c0,25.53-28.83,46.24-64.39,46.24s-64.4-20.71-64.4-46.24S491.68,59,527.25,59,591.64,79.66,591.64,105.2Z"/><rect class="cls-13" x="41.51" y="361.71" width="128.09" height="92.29"/><g class="cls-11"><path class="cls-12" d="M1060.64,528.44c-28,0-23.15-35.61-58.83-35.61"/><path class="cls-12" d="M1178.29,528.44c-28,0-23.15-35.61-58.82-35.61"/><path class="cls-12" d="M1060.64,528.44c28,0,23.15-35.61,58.83-35.61"/><path class="cls-12" d="M1178.29,528.44c28,0,23.14-35.61,58.83-35.61"/></g><line class="cls-13" x1="1207.02" y1="769.15" x2="1352.18" y2="769.15"/><line class="cls-13" x1="1046.63" y1="167.5" x2="1149.27" y2="93.8"/><path class="cls-13" d="M860.09,867.55c-11.86,5.35-27.51,2.8-35-5.72s-3.9-19.75,8-25.11,27.52-2.79,35,5.72S871.93,862.2,860.09,867.55Z"/><g class="cls-11"><line class="cls-12" x1="684.17" y1="938.93" x2="622.44" y2="897.37"/><line class="cls-12" x1="624.35" y1="940.32" x2="682.25" y2="896"/></g><g class="cls-11"><line class="cls-12" x1="1719.17" y1="988.93" x2="1657.44" y2="947.37"/><line class="cls-12" x1="1659.35" y1="990.32" x2="1717.25" y2="946"/></g><g class="cls-11"><line class="cls-12" x1="852.17" y1="235.93" x2="790.44" y2="194.37"/><line class="cls-12" x1="792.35" y1="237.32" x2="850.25" y2="193"/></g><path class="cls-13" d="M138.23,130.91c-35.57,0-64.4-20.61-64.4-46s28.83-46,64.4-46"/><ellipse class="cls-14" cx="693.31" cy="387.65" rx="22.5" ry="23" transform="translate(-96.35 473.65) rotate(-35.43)"/><circle class="cls-15" cx="468.5" cy="204.5" r="12.5"/></svg>