<svg id="Layer_1" data-name="Layer 1" xmlns="http://www.w3.org/2000/svg" viewBox="0 0 1600 1600"><defs><style>.cls-1{fill:#04374d;}.cls-2{fill:#e6e6e6;}.cls-3{fill:#f2f2f2;}.cls-4{fill:#fff;}.cls-5{fill:#075b80;}.cls-6{fill:#065273;}</style></defs><title>DIR</title><path class="cls-1" d="M1356.89,392a20.42,20.42,0,0,0-20.39-19.53H713.18L531.29,203.74a20.41,20.41,0,0,0-13.87-5.44H231.63a20.39,20.39,0,0,0-14.89,6.44L53.53,378.86A20.4,20.4,0,0,0,48,393.7l40.82,930.89a20.42,20.42,0,0,0,20.4,19.51H1377.31a20.42,20.42,0,0,0,20.4-21.3Z"/><path class="cls-2" d="M1301,535.55,112.46,575a20.41,20.41,0,0,0-19.72,21.08l23.2,699A20.38,20.38,0,0,0,137,1314.75l1188.52-39.44a20.39,20.39,0,0,0,19.7-21.08l-23.18-699A20.42,20.42,0,0,0,1301,535.55Z"/><path class="cls-3" d="M1357.22,460.72l-1189-18a20.4,20.4,0,0,0-20.72,20.1l-10.61,699.27A20.39,20.39,0,0,0,157,1182.76l1189,18a20.37,20.37,0,0,0,20.71-20.1l10.62-699.25A20.42,20.42,0,0,0,1357.22,460.72Z"/><path class="cls-4" d="M1419,501.17,238.4,358.53a20.42,20.42,0,0,0-22.72,17.81l-83.89,694.3a20.44,20.44,0,0,0,17.81,22.72L1330.18,1236a20.42,20.42,0,0,0,22.72-17.82l83.88-694.3A20.39,20.39,0,0,0,1419,501.17Z"/><path class="cls-5" d="M1556.12,306.33a20.33,20.33,0,0,0-15.53-7.18H909.26a20.49,20.49,0,0,0-13.87,5.43L713.49,473.3h-441a20.39,20.39,0,0,0-20,16.48l-163.28,830a20.41,20.41,0,0,0,20,24.34H1377.31a20.43,20.43,0,0,0,20.16-17.14L1560.74,322.84A20.42,20.42,0,0,0,1556.12,306.33Z"/><path class="cls-6" d="M93.47,1336.65a20.39,20.39,0,0,0,15.75,7.45H1377.31a20.43,20.43,0,0,0,20.16-17.14l47.41-291.6L89.2,1319.76A20.42,20.42,0,0,0,93.47,1336.65Z"/></svg>